<svg id="svg" version="1.1" xmlns="http://www.w3.org/2000/svg" xmlns:xlink="http://www.w3.org/1999/xlink" width="400" height="400" viewBox="0, 0, 400,400"><g id="svgg"><path id="path0" d="M178.700 0.275 C 176.555 0.360,174.800 0.602,174.800 0.814 C 174.800 1.027,173.540 1.200,172.000 1.200 C 170.400 1.200,169.200 1.371,169.200 1.600 C 169.200 1.822,168.133 2.000,166.800 2.000 C 165.467 2.000,164.400 2.178,164.400 2.400 C 164.400 2.620,163.410 2.800,162.200 2.800 C 160.990 2.800,160.000 2.980,160.000 3.200 C 160.000 3.420,159.201 3.600,158.224 3.600 C 157.247 3.600,156.336 3.780,156.200 4.000 C 156.064 4.220,155.243 4.400,154.376 4.400 C 153.509 4.400,152.800 4.580,152.800 4.800 C 152.800 5.020,152.080 5.200,151.200 5.200 C 150.320 5.200,149.600 5.380,149.600 5.600 C 149.600 5.820,148.981 6.000,148.224 6.000 C 147.467 6.000,146.736 6.180,146.600 6.400 C 146.464 6.620,145.823 6.800,145.176 6.800 C 144.529 6.800,144.000 6.980,144.000 7.200 C 144.000 7.420,143.370 7.600,142.600 7.600 C 141.830 7.600,141.200 7.780,141.200 8.000 C 141.200 8.220,140.690 8.400,140.067 8.400 C 139.443 8.400,138.801 8.533,138.638 8.695 C 138.476 8.857,138.131 9.002,137.872 9.016 C 137.210 9.053,135.154 9.599,134.200 9.991 C 133.760 10.171,132.770 10.536,132.000 10.800 C 130.307 11.382,128.840 11.971,127.905 12.447 C 127.523 12.641,126.848 12.800,126.405 12.800 C 125.962 12.800,125.600 12.980,125.600 13.200 C 125.600 13.420,125.240 13.600,124.800 13.600 C 124.360 13.600,124.000 13.780,124.000 14.000 C 124.000 14.220,123.561 14.400,123.024 14.400 C 122.487 14.400,121.936 14.580,121.800 14.800 C 121.664 15.020,121.203 15.200,120.776 15.200 C 120.349 15.200,120.000 15.380,120.000 15.600 C 120.000 15.820,119.640 16.000,119.200 16.000 C 118.760 16.000,118.400 16.180,118.400 16.400 C 118.400 16.620,118.128 16.800,117.795 16.800 C 117.462 16.800,116.877 16.957,116.495 17.150 C 113.520 18.648,112.247 19.200,111.762 19.200 C 111.453 19.200,111.200 19.346,111.200 19.525 C 111.200 19.704,110.570 20.098,109.800 20.400 C 109.030 20.702,108.400 21.096,108.400 21.275 C 108.400 21.454,108.040 21.600,107.600 21.600 C 107.160 21.600,106.800 21.780,106.800 22.000 C 106.800 22.220,106.440 22.400,106.000 22.400 C 105.560 22.400,105.200 22.580,105.200 22.800 C 105.200 23.020,104.964 23.200,104.675 23.200 C 104.387 23.200,103.764 23.560,103.292 24.000 C 102.820 24.440,102.156 24.800,101.817 24.800 C 101.478 24.800,101.200 25.010,101.200 25.267 C 101.200 25.523,101.088 25.621,100.950 25.484 C 100.694 25.228,97.559 26.669,97.200 27.207 C 97.090 27.372,96.350 27.871,95.555 28.316 C 94.760 28.761,93.682 29.367,93.159 29.662 C 92.636 29.958,91.916 30.515,91.557 30.900 C 91.199 31.285,90.652 31.600,90.341 31.600 C 90.031 31.600,89.517 31.960,89.200 32.400 C 88.883 32.840,88.343 33.200,88.000 33.200 C 87.657 33.200,87.117 33.560,86.800 34.000 C 86.483 34.440,85.943 34.800,85.600 34.800 C 85.257 34.800,84.717 35.160,84.400 35.600 C 84.083 36.040,83.575 36.400,83.272 36.400 C 82.969 36.400,82.217 36.940,81.600 37.600 C 80.983 38.260,80.308 38.800,80.099 38.800 C 79.890 38.800,79.154 39.340,78.463 40.000 C 77.772 40.660,77.108 41.200,76.987 41.200 C 76.693 41.200,75.738 41.994,74.700 43.100 C 74.236 43.595,73.642 44.000,73.382 44.000 C 73.121 44.000,71.877 44.990,70.618 46.200 C 69.358 47.410,68.166 48.400,67.968 48.400 C 67.584 48.400,59.073 56.884,57.900 58.436 C 57.515 58.946,57.200 59.230,57.200 59.069 C 57.200 58.907,55.220 60.766,52.800 63.200 C 50.380 65.634,48.400 67.793,48.400 67.997 C 48.400 68.202,47.592 69.201,46.604 70.217 C 45.616 71.233,44.406 72.635,43.915 73.332 C 42.928 74.733,42.448 75.352,41.700 76.185 C 41.425 76.492,41.200 76.863,41.200 77.011 C 41.200 77.158,40.660 77.783,40.000 78.400 C 39.340 79.017,38.800 79.720,38.800 79.964 C 38.800 80.208,38.260 80.972,37.600 81.663 C 36.940 82.354,36.400 83.162,36.400 83.459 C 36.400 83.757,36.250 84.000,36.068 84.000 C 35.885 84.000,35.481 84.495,35.170 85.100 C 34.860 85.705,34.289 86.491,33.903 86.847 C 33.516 87.203,33.200 87.748,33.200 88.059 C 33.200 88.369,32.840 88.883,32.400 89.200 C 31.960 89.517,31.600 90.057,31.600 90.400 C 31.600 90.743,31.240 91.283,30.800 91.600 C 30.360 91.917,30.000 92.329,30.000 92.516 C 30.000 92.703,29.460 93.641,28.800 94.600 C 28.140 95.559,27.600 96.522,27.600 96.739 C 27.600 96.956,27.465 97.193,27.300 97.267 C 26.779 97.498,25.203 100.670,25.474 100.941 C 25.617 101.083,25.523 101.200,25.267 101.200 C 25.010 101.200,24.800 101.560,24.800 102.000 C 24.800 102.440,24.620 102.800,24.400 102.800 C 24.180 102.800,24.000 103.036,24.000 103.325 C 24.000 103.613,23.640 104.236,23.200 104.708 C 22.760 105.180,22.400 105.829,22.400 106.150 C 22.400 106.471,22.175 106.814,21.900 106.913 C 21.367 107.104,21.978 107.739,25.200 110.345 C 26.190 111.145,27.090 111.890,27.200 112.001 C 27.310 112.112,29.290 113.731,31.600 115.600 C 33.910 117.468,36.160 119.301,36.600 119.671 C 37.438 120.377,46.280 127.596,48.946 129.750 C 49.797 130.438,52.407 132.577,54.746 134.505 C 57.086 136.432,60.170 138.962,61.600 140.127 C 63.030 141.292,66.270 143.954,68.800 146.043 C 72.409 149.022,83.309 157.894,87.666 161.399 C 88.466 162.042,88.800 161.787,88.800 160.533 C 88.800 160.020,88.980 159.600,89.200 159.600 C 89.420 159.600,89.600 159.274,89.600 158.875 C 89.600 158.476,89.975 157.374,90.433 156.426 C 90.891 155.477,91.365 154.094,91.485 153.351 C 91.606 152.608,91.861 152.000,92.052 152.000 C 92.244 152.000,92.400 151.640,92.400 151.200 C 92.400 150.760,92.580 150.400,92.800 150.400 C 93.020 150.400,93.200 150.040,93.200 149.600 C 93.200 149.160,93.380 148.800,93.600 148.800 C 93.820 148.800,94.000 148.440,94.000 148.000 C 94.000 147.560,94.180 147.200,94.400 147.200 C 94.620 147.200,94.800 146.840,94.800 146.400 C 94.800 145.960,94.980 145.600,95.200 145.600 C 95.420 145.600,95.600 145.240,95.600 144.800 C 95.600 144.360,95.780 144.000,96.000 144.000 C 96.220 144.000,96.400 143.706,96.400 143.347 C 96.400 142.988,96.729 142.403,97.130 142.047 C 97.532 141.691,98.116 140.815,98.428 140.100 C 98.740 139.385,99.131 138.800,99.298 138.800 C 99.464 138.800,99.600 138.530,99.600 138.200 C 99.600 137.870,99.780 137.600,100.000 137.600 C 100.220 137.600,100.400 137.330,100.400 137.000 C 100.400 136.670,100.580 136.400,100.800 136.400 C 101.020 136.400,101.200 136.175,101.200 135.900 C 101.201 135.625,101.651 134.877,102.200 134.238 C 102.750 133.599,103.200 132.952,103.200 132.800 C 103.200 132.648,103.650 132.001,104.200 131.362 C 104.749 130.723,105.199 130.041,105.200 129.847 C 105.200 129.653,105.524 129.203,105.919 128.847 C 106.314 128.491,107.066 127.570,107.590 126.800 C 108.114 126.030,108.825 125.120,109.171 124.777 C 109.517 124.434,110.430 123.372,111.200 122.417 C 112.927 120.274,120.121 113.053,122.240 111.335 C 123.098 110.640,124.520 109.425,125.400 108.636 C 126.280 107.846,127.127 107.200,127.282 107.200 C 127.437 107.200,127.977 106.795,128.482 106.300 C 128.987 105.805,129.895 105.145,130.500 104.832 C 131.105 104.520,131.600 104.115,131.600 103.932 C 131.600 103.750,131.843 103.600,132.141 103.600 C 132.438 103.600,133.246 103.060,133.937 102.400 C 134.628 101.740,135.464 101.200,135.796 101.200 C 136.128 101.200,136.400 101.020,136.400 100.800 C 136.400 100.580,136.670 100.400,137.000 100.400 C 137.330 100.400,137.600 100.220,137.600 100.000 C 137.600 99.780,137.870 99.600,138.200 99.600 C 138.530 99.600,138.800 99.464,138.800 99.298 C 138.800 99.131,139.385 98.740,140.100 98.428 C 140.815 98.116,141.691 97.532,142.047 97.130 C 142.403 96.729,142.988 96.400,143.347 96.400 C 143.706 96.400,144.000 96.220,144.000 96.000 C 144.000 95.780,144.360 95.600,144.800 95.600 C 145.240 95.600,145.600 95.420,145.600 95.200 C 145.600 94.980,145.960 94.800,146.400 94.800 C 146.840 94.800,147.200 94.620,147.200 94.400 C 147.200 94.180,147.560 94.000,148.000 94.000 C 148.440 94.000,148.800 93.820,148.800 93.600 C 148.800 93.380,149.160 93.200,149.600 93.200 C 150.040 93.200,150.400 93.020,150.400 92.800 C 150.400 92.580,150.760 92.400,151.200 92.400 C 151.640 92.400,152.000 92.261,152.000 92.091 C 152.000 91.921,152.765 91.587,153.700 91.350 C 156.014 90.761,159.370 89.467,159.533 89.100 C 159.607 88.935,160.192 88.800,160.833 88.800 C 161.475 88.800,162.000 88.620,162.000 88.400 C 162.000 88.180,162.540 88.000,163.200 88.000 C 163.860 88.000,164.400 87.820,164.400 87.600 C 164.400 87.380,164.940 87.200,165.600 87.200 C 166.260 87.200,166.800 87.020,166.800 86.800 C 166.800 86.580,167.419 86.400,168.176 86.400 C 168.933 86.400,169.664 86.220,169.800 86.000 C 169.936 85.780,170.667 85.600,171.424 85.600 C 172.181 85.600,172.800 85.420,172.800 85.200 C 172.800 84.980,173.520 84.800,174.400 84.800 C 175.280 84.800,176.000 84.620,176.000 84.400 C 176.000 84.180,176.889 84.000,177.976 84.000 C 179.063 84.000,180.064 83.820,180.200 83.600 C 180.336 83.380,181.607 83.200,183.024 83.200 C 184.475 83.200,185.600 83.025,185.600 82.800 C 185.600 82.558,187.325 82.400,189.976 82.400 C 192.463 82.400,194.460 82.227,194.600 82.000 C 194.932 81.463,205.200 81.463,205.200 82.000 C 205.200 82.243,207.000 82.400,209.800 82.400 C 212.600 82.400,214.400 82.557,214.400 82.800 C 214.400 83.025,215.525 83.200,216.976 83.200 C 218.393 83.200,219.664 83.380,219.800 83.600 C 219.936 83.820,220.937 84.000,222.024 84.000 C 223.111 84.000,224.000 84.180,224.000 84.400 C 224.000 84.620,224.720 84.800,225.600 84.800 C 226.480 84.800,227.200 84.980,227.200 85.200 C 227.200 85.420,227.819 85.600,228.576 85.600 C 229.333 85.600,230.064 85.780,230.200 86.000 C 230.336 86.220,231.067 86.400,231.824 86.400 C 232.581 86.400,233.200 86.580,233.200 86.800 C 233.200 87.020,233.740 87.200,234.400 87.200 C 235.060 87.200,235.600 87.380,235.600 87.600 C 235.600 87.820,236.140 88.000,236.800 88.000 C 237.460 88.000,238.000 88.180,238.000 88.400 C 238.000 88.620,238.525 88.800,239.167 88.800 C 239.808 88.800,240.393 88.935,240.467 89.100 C 240.630 89.467,243.986 90.761,246.300 91.350 C 247.235 91.587,248.000 91.921,248.000 92.091 C 248.000 92.261,248.360 92.400,248.800 92.400 C 249.240 92.400,249.600 92.580,249.600 92.800 C 249.600 93.020,249.960 93.200,250.400 93.200 C 250.840 93.200,251.200 93.380,251.200 93.600 C 251.200 93.820,251.560 94.000,252.000 94.000 C 252.440 94.000,252.800 94.180,252.800 94.400 C 252.800 94.620,253.160 94.800,253.600 94.800 C 254.040 94.800,254.400 94.980,254.400 95.200 C 254.400 95.420,254.760 95.600,255.200 95.600 C 255.640 95.600,256.000 95.780,256.000 96.000 C 256.000 96.220,256.294 96.400,256.653 96.400 C 257.012 96.400,257.597 96.729,257.953 97.130 C 258.309 97.532,259.185 98.116,259.900 98.428 C 260.615 98.740,261.200 99.131,261.200 99.298 C 261.200 100.194,264.141 99.534,265.200 98.400 C 265.817 97.740,266.519 97.200,266.760 97.200 C 267.002 97.200,267.200 97.020,267.200 96.800 C 267.200 96.580,267.394 96.400,267.631 96.400 C 267.869 96.400,268.754 95.680,269.600 94.800 C 270.446 93.920,271.297 93.200,271.493 93.200 C 271.689 93.200,272.198 92.882,272.625 92.494 C 273.051 92.106,274.300 91.071,275.400 90.194 C 276.500 89.317,277.877 88.105,278.460 87.500 C 279.044 86.895,279.697 86.400,279.912 86.400 C 280.127 86.400,281.000 85.724,281.852 84.898 C 282.703 84.072,284.030 82.954,284.800 82.413 C 285.570 81.873,286.677 80.929,287.260 80.315 C 287.844 79.702,288.519 79.200,288.760 79.200 C 289.002 79.200,289.200 79.050,289.200 78.868 C 289.200 78.685,289.647 78.296,290.193 78.004 C 290.740 77.711,291.278 77.186,291.389 76.836 C 291.500 76.486,292.135 75.959,292.799 75.664 C 293.464 75.370,294.741 74.425,295.637 73.565 C 296.532 72.704,297.425 72.000,297.619 72.000 C 297.814 72.000,298.564 71.412,299.287 70.693 C 300.009 69.975,301.230 68.947,302.000 68.409 C 302.770 67.871,303.877 66.929,304.460 66.315 C 305.044 65.702,305.719 65.200,305.960 65.200 C 306.202 65.200,306.400 65.050,306.400 64.868 C 306.400 64.685,306.847 64.296,307.393 64.004 C 307.940 63.711,308.492 63.141,308.620 62.736 C 308.749 62.331,309.090 62.000,309.379 62.000 C 309.667 62.000,310.635 61.290,311.530 60.421 C 312.425 59.553,313.670 58.577,314.298 58.253 C 314.925 57.928,316.195 56.929,317.120 56.031 C 318.044 55.134,318.959 54.400,319.152 54.400 C 319.345 54.400,320.245 53.680,321.152 52.800 C 322.059 51.920,322.919 51.200,323.062 51.200 C 323.206 51.200,323.973 50.525,324.766 49.700 C 325.559 48.875,326.701 47.945,327.304 47.632 C 328.862 46.826,328.831 45.076,327.247 44.419 C 326.613 44.157,325.725 43.550,325.275 43.071 C 324.257 41.989,323.303 41.200,323.013 41.200 C 322.892 41.200,322.228 40.660,321.537 40.000 C 320.846 39.340,320.126 38.800,319.937 38.800 C 319.748 38.800,319.028 38.260,318.337 37.600 C 317.646 36.940,316.878 36.400,316.629 36.400 C 316.380 36.400,315.917 36.040,315.600 35.600 C 315.283 35.160,314.743 34.800,314.400 34.800 C 314.057 34.800,313.517 34.440,313.200 34.000 C 312.883 33.560,312.343 33.200,312.000 33.200 C 311.657 33.200,311.117 32.840,310.800 32.400 C 310.483 31.960,309.943 31.600,309.600 31.600 C 309.257 31.600,308.717 31.240,308.400 30.800 C 308.083 30.360,307.664 30.000,307.470 30.000 C 307.275 30.000,306.316 29.460,305.338 28.800 C 304.360 28.140,303.404 27.600,303.213 27.600 C 303.023 27.600,302.807 27.465,302.733 27.300 C 302.523 26.826,298.562 24.800,297.846 24.800 C 297.491 24.800,297.200 24.620,297.200 24.400 C 297.200 24.180,296.964 24.000,296.675 24.000 C 296.387 24.000,295.764 23.640,295.292 23.200 C 294.820 22.760,294.156 22.400,293.817 22.400 C 293.478 22.400,293.200 22.220,293.200 22.000 C 293.200 21.780,292.840 21.600,292.400 21.600 C 291.960 21.600,291.599 21.465,291.597 21.300 C 291.593 20.949,289.663 20.000,288.954 20.000 C 288.686 20.000,288.407 19.865,288.333 19.700 C 288.112 19.201,284.778 17.600,283.962 17.600 C 283.543 17.600,283.200 17.420,283.200 17.200 C 283.200 16.980,282.840 16.800,282.400 16.800 C 281.960 16.800,281.600 16.620,281.600 16.400 C 281.600 16.180,281.240 16.000,280.800 16.000 C 280.360 16.000,280.000 15.820,280.000 15.600 C 280.000 15.380,279.651 15.200,279.224 15.200 C 278.797 15.200,278.336 15.020,278.200 14.800 C 278.064 14.580,277.513 14.400,276.976 14.400 C 276.439 14.400,276.000 14.220,276.000 14.000 C 276.000 13.780,275.728 13.600,275.395 13.600 C 275.062 13.600,274.477 13.441,274.095 13.247 C 273.713 13.052,272.905 12.692,272.300 12.447 C 271.695 12.201,270.795 11.828,270.300 11.617 C 268.726 10.946,263.027 9.096,262.308 9.021 C 261.928 8.982,261.493 8.826,261.341 8.675 C 261.190 8.524,260.557 8.400,259.933 8.400 C 259.310 8.400,258.800 8.220,258.800 8.000 C 258.800 7.780,258.170 7.600,257.400 7.600 C 256.630 7.600,256.000 7.420,256.000 7.200 C 256.000 6.980,255.460 6.800,254.800 6.800 C 254.140 6.800,253.600 6.620,253.600 6.400 C 253.600 6.180,252.880 6.000,252.000 6.000 C 251.120 6.000,250.400 5.820,250.400 5.600 C 250.400 5.380,249.680 5.200,248.800 5.200 C 247.920 5.200,247.200 5.020,247.200 4.800 C 247.200 4.580,246.401 4.400,245.424 4.400 C 244.447 4.400,243.536 4.220,243.400 4.000 C 243.264 3.780,242.454 3.600,241.600 3.600 C 240.746 3.600,239.936 3.420,239.800 3.200 C 239.664 2.980,238.753 2.800,237.776 2.800 C 236.799 2.800,236.000 2.620,236.000 2.400 C 236.000 2.174,234.867 2.000,233.400 2.000 C 231.933 2.000,230.800 1.826,230.800 1.600 C 230.800 1.372,229.611 1.200,228.033 1.200 C 226.204 1.200,225.211 1.034,225.103 0.709 C 224.941 0.224,188.617 -0.116,178.700 0.275 " stroke="none" fill="#f44434" fill-rule="evenodd"></path><path id="path1" d="M88.800 241.905 C 88.470 242.018,87.300 242.863,86.200 243.784 C 85.100 244.705,81.770 247.423,78.800 249.823 C 75.830 252.224,71.773 255.541,69.785 257.194 C 67.796 258.847,63.849 262.090,61.012 264.400 C 58.175 266.710,53.666 270.400,50.991 272.600 C 48.316 274.800,42.814 279.297,38.764 282.594 C 34.714 285.891,30.950 288.978,30.400 289.455 C 27.607 291.875,23.858 294.800,23.549 294.800 C 22.934 294.800,23.175 295.823,24.000 296.708 C 24.440 297.180,24.800 297.760,24.800 297.997 C 24.800 298.629,26.843 302.578,27.251 302.733 C 27.443 302.807,27.600 303.044,27.600 303.261 C 27.600 303.478,28.140 304.441,28.800 305.400 C 29.460 306.359,30.000 307.297,30.000 307.484 C 30.000 307.671,30.360 308.083,30.800 308.400 C 31.240 308.717,31.600 309.257,31.600 309.600 C 31.600 309.943,31.960 310.483,32.400 310.800 C 32.840 311.117,33.200 311.657,33.200 312.000 C 33.200 312.343,33.560 312.883,34.000 313.200 C 34.440 313.517,34.800 314.057,34.800 314.400 C 34.800 314.743,35.160 315.283,35.600 315.600 C 36.040 315.917,36.400 316.380,36.400 316.629 C 36.400 316.878,36.940 317.646,37.600 318.337 C 38.260 319.028,38.800 319.748,38.800 319.937 C 38.800 320.126,39.340 320.846,40.000 321.537 C 40.660 322.228,41.200 322.892,41.200 323.013 C 41.200 323.264,41.505 323.650,43.199 325.542 C 43.859 326.281,44.400 327.029,44.400 327.206 C 44.400 327.383,45.390 328.558,46.600 329.818 C 47.810 331.077,48.800 332.269,48.800 332.466 C 48.800 332.664,50.825 334.806,53.300 337.226 C 55.775 339.647,57.980 341.812,58.200 342.038 C 63.186 347.156,67.744 351.600,68.008 351.600 C 68.194 351.600,69.271 352.500,70.400 353.600 C 71.529 354.700,72.599 355.600,72.776 355.600 C 72.954 355.600,73.887 356.320,74.849 357.200 C 75.812 358.080,76.736 358.800,76.903 358.800 C 77.071 358.800,77.772 359.340,78.463 360.000 C 79.154 360.660,79.874 361.200,80.063 361.200 C 80.252 361.200,80.972 361.740,81.663 362.400 C 82.354 363.060,83.122 363.600,83.371 363.600 C 83.620 363.600,84.083 363.960,84.400 364.400 C 84.717 364.840,85.257 365.200,85.600 365.200 C 85.943 365.200,86.483 365.560,86.800 366.000 C 87.117 366.440,87.657 366.800,88.000 366.800 C 88.343 366.800,88.883 367.160,89.200 367.600 C 89.517 368.040,90.057 368.400,90.400 368.400 C 90.743 368.400,91.283 368.760,91.600 369.200 C 91.917 369.640,92.329 370.000,92.516 370.000 C 92.703 370.000,93.641 370.540,94.600 371.200 C 95.559 371.860,96.522 372.400,96.739 372.400 C 96.956 372.400,97.193 372.535,97.267 372.700 C 97.477 373.174,101.438 375.200,102.154 375.200 C 102.509 375.200,102.800 375.380,102.800 375.600 C 102.800 375.820,103.036 376.000,103.325 376.000 C 103.613 376.000,104.236 376.360,104.708 376.800 C 105.180 377.240,105.844 377.600,106.183 377.600 C 106.522 377.600,106.800 377.780,106.800 378.000 C 106.800 378.220,107.160 378.400,107.600 378.400 C 108.040 378.400,108.400 378.580,108.400 378.800 C 108.400 379.020,108.760 379.200,109.200 379.200 C 109.640 379.200,110.000 379.346,110.000 379.525 C 110.000 379.704,110.630 380.098,111.400 380.400 C 112.170 380.702,112.800 381.096,112.800 381.275 C 112.800 381.454,113.149 381.600,113.576 381.600 C 114.003 381.600,114.464 381.780,114.600 382.000 C 114.736 382.220,115.287 382.400,115.824 382.400 C 116.361 382.400,116.800 382.580,116.800 382.800 C 116.800 383.020,117.160 383.200,117.600 383.200 C 118.040 383.200,118.400 383.380,118.400 383.600 C 118.400 383.820,118.760 384.000,119.200 384.000 C 119.640 384.000,120.000 384.147,120.000 384.328 C 120.000 384.508,120.900 384.900,122.000 385.200 C 123.100 385.500,124.000 385.892,124.000 386.072 C 124.000 386.253,124.360 386.400,124.800 386.400 C 125.240 386.400,125.600 386.580,125.600 386.800 C 125.600 387.020,125.962 387.200,126.405 387.200 C 126.848 387.200,127.523 387.359,127.905 387.553 C 128.287 387.748,129.140 388.129,129.800 388.400 C 130.460 388.671,131.313 389.052,131.695 389.247 C 132.077 389.441,132.664 389.600,133.000 389.600 C 133.336 389.600,133.923 389.763,134.305 389.963 C 135.447 390.560,139.222 391.600,140.246 391.600 C 140.771 391.600,141.200 391.780,141.200 392.000 C 141.200 392.220,141.830 392.400,142.600 392.400 C 143.370 392.400,144.000 392.580,144.000 392.800 C 144.000 393.020,144.529 393.200,145.176 393.200 C 145.823 393.200,146.464 393.380,146.600 393.600 C 146.736 393.820,147.467 394.000,148.224 394.000 C 148.981 394.000,149.600 394.180,149.600 394.400 C 149.600 394.620,150.320 394.800,151.200 394.800 C 152.080 394.800,152.800 394.980,152.800 395.200 C 152.800 395.420,153.599 395.600,154.576 395.600 C 155.553 395.600,156.464 395.780,156.600 396.000 C 156.736 396.220,157.557 396.400,158.424 396.400 C 159.291 396.400,160.000 396.580,160.000 396.800 C 160.000 397.020,160.889 397.200,161.976 397.200 C 163.063 397.200,164.064 397.380,164.200 397.600 C 164.336 397.820,165.517 398.000,166.824 398.000 C 168.141 398.000,169.200 398.178,169.200 398.400 C 169.200 398.628,170.389 398.800,171.967 398.800 C 173.824 398.800,174.788 398.964,174.900 399.300 C 175.031 399.693,180.409 399.800,200.000 399.800 C 219.591 399.800,224.969 399.693,225.100 399.300 C 225.212 398.964,226.176 398.800,228.033 398.800 C 229.611 398.800,230.800 398.628,230.800 398.400 C 230.800 398.178,231.859 398.000,233.176 398.000 C 234.483 398.000,235.664 397.820,235.800 397.600 C 235.936 397.380,236.836 397.200,237.800 397.200 C 238.764 397.200,239.664 397.020,239.800 396.800 C 239.936 396.580,240.836 396.400,241.800 396.400 C 242.764 396.400,243.664 396.220,243.800 396.000 C 243.936 395.780,244.757 395.600,245.624 395.600 C 246.491 395.600,247.200 395.420,247.200 395.200 C 247.200 394.980,247.920 394.800,248.800 394.800 C 249.680 394.800,250.400 394.620,250.400 394.400 C 250.400 394.180,251.019 394.000,251.776 394.000 C 252.533 394.000,253.264 393.820,253.400 393.600 C 253.536 393.380,254.177 393.200,254.824 393.200 C 255.471 393.200,256.000 393.020,256.000 392.800 C 256.000 392.580,256.630 392.400,257.400 392.400 C 258.170 392.400,258.800 392.220,258.800 392.000 C 258.800 391.780,259.229 391.600,259.754 391.600 C 260.778 391.600,264.553 390.560,265.695 389.963 C 266.077 389.763,266.741 389.600,267.171 389.600 C 267.601 389.600,268.064 389.420,268.200 389.200 C 268.336 388.980,268.797 388.800,269.224 388.800 C 269.651 388.800,270.000 388.620,270.000 388.400 C 270.000 388.180,270.439 388.000,270.976 388.000 C 271.513 388.000,272.064 387.820,272.200 387.600 C 272.336 387.380,272.887 387.200,273.424 387.200 C 273.961 387.200,274.400 387.020,274.400 386.800 C 274.400 386.580,274.760 386.400,275.200 386.400 C 275.640 386.400,276.000 386.220,276.000 386.000 C 276.000 385.780,276.439 385.600,276.976 385.600 C 277.513 385.600,278.064 385.420,278.200 385.200 C 278.336 384.980,278.797 384.800,279.224 384.800 C 279.651 384.800,280.000 384.620,280.000 384.400 C 280.000 384.180,280.360 384.000,280.800 384.000 C 281.240 384.000,281.600 383.820,281.600 383.600 C 281.600 383.380,281.915 383.201,282.300 383.203 C 283.076 383.206,291.322 379.189,291.533 378.705 C 291.607 378.537,292.012 378.400,292.433 378.400 C 292.855 378.400,293.200 378.220,293.200 378.000 C 293.200 377.780,293.478 377.600,293.817 377.600 C 294.156 377.600,294.820 377.240,295.292 376.800 C 295.764 376.360,296.387 376.000,296.675 376.000 C 296.964 376.000,297.200 375.843,297.200 375.650 C 297.200 375.457,297.755 375.189,298.434 375.053 C 299.112 374.918,300.175 374.445,300.795 374.003 C 301.416 373.561,302.121 373.200,302.362 373.200 C 302.603 373.200,302.800 373.020,302.800 372.800 C 302.800 372.580,302.993 372.400,303.228 372.400 C 303.463 372.400,304.441 371.860,305.400 371.200 C 306.359 370.540,307.297 370.000,307.484 370.000 C 307.671 370.000,308.083 369.640,308.400 369.200 C 308.717 368.760,309.257 368.400,309.600 368.400 C 309.943 368.400,310.483 368.040,310.800 367.600 C 311.117 367.160,311.657 366.800,312.000 366.800 C 312.343 366.800,312.883 366.440,313.200 366.000 C 313.517 365.560,314.057 365.200,314.400 365.200 C 314.743 365.200,315.283 364.840,315.600 364.400 C 315.917 363.960,316.380 363.600,316.629 363.600 C 316.878 363.600,317.646 363.060,318.337 362.400 C 319.028 361.740,319.792 361.200,320.036 361.200 C 320.280 361.200,320.983 360.660,321.600 360.000 C 322.217 359.340,322.874 358.794,323.060 358.787 C 323.685 358.762,325.200 357.279,325.200 356.692 C 325.200 356.374,322.916 354.243,320.124 351.957 C 317.332 349.670,313.971 346.900,312.655 345.800 C 311.339 344.700,308.159 342.090,305.587 340.000 C 303.016 337.910,300.140 335.570,299.196 334.800 C 298.252 334.030,295.302 331.625,292.640 329.455 C 289.978 327.286,287.350 325.123,286.800 324.649 C 286.250 324.175,283.910 322.269,281.600 320.413 C 279.290 318.557,277.310 316.927,277.200 316.791 C 277.090 316.655,274.120 314.218,270.600 311.375 C 263.196 305.395,262.233 304.592,260.682 303.100 C 259.321 301.791,258.772 301.730,258.000 302.800 C 257.683 303.240,257.103 303.600,256.712 303.600 C 256.320 303.600,256.000 303.780,256.000 304.000 C 256.000 304.220,255.640 304.400,255.200 304.400 C 254.760 304.400,254.400 304.580,254.400 304.800 C 254.400 305.020,254.040 305.200,253.600 305.200 C 253.160 305.200,252.800 305.380,252.800 305.600 C 252.800 305.820,252.440 306.000,252.000 306.000 C 251.560 306.000,251.200 306.180,251.200 306.400 C 251.200 306.620,250.840 306.800,250.400 306.800 C 249.960 306.800,249.600 306.980,249.600 307.200 C 249.600 307.420,249.240 307.600,248.800 307.600 C 248.360 307.600,248.000 307.739,248.000 307.909 C 248.000 308.079,247.235 308.413,246.300 308.650 C 243.986 309.239,240.630 310.533,240.467 310.900 C 240.393 311.065,239.808 311.200,239.167 311.200 C 238.525 311.200,238.000 311.380,238.000 311.600 C 238.000 311.820,237.460 312.000,236.800 312.000 C 236.140 312.000,235.600 312.180,235.600 312.400 C 235.600 312.620,235.060 312.800,234.400 312.800 C 233.740 312.800,233.200 312.980,233.200 313.200 C 233.200 313.420,232.581 313.600,231.824 313.600 C 231.067 313.600,230.336 313.780,230.200 314.000 C 230.064 314.220,229.434 314.400,228.800 314.400 C 228.166 314.400,227.536 314.580,227.400 314.800 C 227.264 315.020,226.443 315.200,225.576 315.200 C 224.709 315.200,224.000 315.380,224.000 315.600 C 224.000 315.820,223.111 316.000,222.024 316.000 C 220.937 316.000,219.936 316.180,219.800 316.400 C 219.664 316.620,218.393 316.800,216.976 316.800 C 215.525 316.800,214.400 316.975,214.400 317.200 C 214.400 317.443,212.600 317.600,209.800 317.600 C 207.000 317.600,205.200 317.757,205.200 318.000 C 205.200 318.246,203.200 318.400,200.000 318.400 C 196.800 318.400,194.800 318.246,194.800 318.000 C 194.800 317.757,193.000 317.600,190.200 317.600 C 187.400 317.600,185.600 317.443,185.600 317.200 C 185.600 316.978,184.541 316.800,183.224 316.800 C 181.917 316.800,180.736 316.620,180.600 316.400 C 180.464 316.180,179.373 316.000,178.176 316.000 C 176.979 316.000,176.000 315.820,176.000 315.600 C 176.000 315.380,175.280 315.200,174.400 315.200 C 173.520 315.200,172.800 315.020,172.800 314.800 C 172.800 314.580,172.181 314.400,171.424 314.400 C 170.667 314.400,169.936 314.220,169.800 314.000 C 169.664 313.780,168.933 313.600,168.176 313.600 C 167.419 313.600,166.800 313.420,166.800 313.200 C 166.800 312.980,166.260 312.800,165.600 312.800 C 164.940 312.800,164.400 312.620,164.400 312.400 C 164.400 312.180,163.860 312.000,163.200 312.000 C 162.540 312.000,162.000 311.820,162.000 311.600 C 162.000 311.380,161.460 311.200,160.800 311.200 C 160.140 311.200,159.600 311.020,159.600 310.800 C 159.600 310.580,159.335 310.400,159.011 310.400 C 158.688 310.400,157.405 309.950,156.162 309.400 C 154.918 308.850,153.473 308.400,152.950 308.400 C 152.428 308.400,152.000 308.220,152.000 308.000 C 152.000 307.780,151.640 307.600,151.200 307.600 C 150.760 307.600,150.400 307.420,150.400 307.200 C 150.400 306.980,150.040 306.800,149.600 306.800 C 149.160 306.800,148.800 306.620,148.800 306.400 C 148.800 306.180,148.440 306.000,148.000 306.000 C 147.560 306.000,147.200 305.820,147.200 305.600 C 147.200 305.380,146.840 305.200,146.400 305.200 C 145.960 305.200,145.600 305.020,145.600 304.800 C 145.600 304.580,145.240 304.400,144.800 304.400 C 144.360 304.400,144.000 304.220,144.000 304.000 C 144.000 303.780,143.706 303.600,143.347 303.600 C 142.988 303.600,142.403 303.284,142.047 302.897 C 141.691 302.511,140.860 301.926,140.200 301.597 C 139.540 301.269,138.651 300.685,138.225 300.300 C 137.798 299.915,137.213 299.600,136.925 299.600 C 136.636 299.600,136.400 299.420,136.400 299.200 C 136.400 298.980,136.175 298.800,135.900 298.800 C 135.625 298.799,134.877 298.349,134.238 297.800 C 133.599 297.250,132.932 296.800,132.756 296.800 C 132.580 296.800,131.986 296.350,131.436 295.800 C 130.886 295.250,130.249 294.800,130.019 294.800 C 129.790 294.800,128.934 294.170,128.118 293.400 C 127.301 292.630,126.311 292.000,125.917 292.000 C 125.522 292.000,125.200 291.828,125.200 291.618 C 125.200 291.149,123.791 289.736,121.992 288.400 C 119.136 286.278,109.893 276.523,107.755 273.372 C 107.233 272.602,106.444 271.584,106.003 271.111 C 105.561 270.637,105.200 270.053,105.200 269.813 C 105.200 269.573,104.840 269.117,104.400 268.800 C 103.960 268.483,103.600 268.038,103.599 267.812 C 103.599 267.585,103.059 266.770,102.400 266.000 C 101.741 265.230,101.201 264.375,101.201 264.100 C 101.200 263.825,101.020 263.600,100.800 263.600 C 100.580 263.600,100.400 263.364,100.400 263.075 C 100.400 262.787,100.085 262.202,99.700 261.775 C 99.315 261.349,98.731 260.460,98.403 259.800 C 98.074 259.140,97.489 258.309,97.103 257.953 C 96.716 257.597,96.400 257.012,96.400 256.653 C 96.400 256.294,96.220 256.000,96.000 256.000 C 95.780 256.000,95.600 255.640,95.600 255.200 C 95.600 254.760,95.420 254.400,95.200 254.400 C 94.980 254.400,94.800 254.040,94.800 253.600 C 94.800 253.160,94.620 252.800,94.400 252.800 C 94.180 252.800,94.000 252.440,94.000 252.000 C 94.000 251.560,93.820 251.200,93.600 251.200 C 93.380 251.200,93.200 250.840,93.200 250.400 C 93.200 249.960,93.020 249.600,92.800 249.600 C 92.580 249.600,92.400 249.240,92.400 248.800 C 92.400 248.360,92.220 248.000,92.000 248.000 C 91.780 248.000,91.600 247.647,91.600 247.215 C 91.600 245.128,89.732 241.586,88.800 241.905 " stroke="none" fill="#2cb343" fill-rule="evenodd"></path><path id="path2" d="M21.300 108.198 C 21.025 108.511,20.800 109.044,20.800 109.383 C 20.800 109.722,20.665 110.001,20.500 110.003 C 20.141 110.007,19.200 111.944,19.200 112.680 C 19.200 112.966,19.064 113.200,18.898 113.200 C 18.731 113.200,18.360 113.785,18.071 114.500 C 17.783 115.215,17.379 116.113,17.174 116.495 C 16.968 116.877,16.800 117.462,16.800 117.795 C 16.800 118.128,16.620 118.400,16.400 118.400 C 16.180 118.400,16.000 118.665,16.000 118.988 C 16.000 119.311,15.640 120.217,15.200 121.000 C 14.760 121.783,14.400 122.779,14.400 123.212 C 14.400 123.645,14.220 124.000,14.000 124.000 C 13.780 124.000,13.600 124.360,13.600 124.800 C 13.600 125.240,13.409 125.600,13.176 125.600 C 12.943 125.600,12.844 125.748,12.956 125.929 C 13.068 126.109,12.898 126.760,12.580 127.374 C 12.261 127.989,12.000 128.831,12.000 129.246 C 12.000 129.661,11.820 130.000,11.600 130.000 C 11.380 130.000,11.200 130.362,11.200 130.805 C 11.200 131.248,11.041 131.923,10.847 132.305 C 9.779 134.404,8.400 138.866,8.400 140.222 C 8.400 140.734,8.220 141.264,8.000 141.400 C 7.780 141.536,7.600 142.166,7.600 142.800 C 7.600 143.434,7.420 144.064,7.200 144.200 C 6.980 144.336,6.800 144.876,6.800 145.400 C 6.800 145.924,6.620 146.464,6.400 146.600 C 6.180 146.736,6.000 147.456,6.000 148.200 C 6.000 148.944,5.820 149.664,5.600 149.800 C 5.380 149.936,5.200 150.667,5.200 151.424 C 5.200 152.181,5.020 152.800,4.800 152.800 C 4.580 152.800,4.400 153.509,4.400 154.376 C 4.400 155.243,4.220 156.064,4.000 156.200 C 3.780 156.336,3.600 157.247,3.600 158.224 C 3.600 159.201,3.420 160.000,3.200 160.000 C 2.980 160.000,2.800 160.990,2.800 162.200 C 2.800 163.410,2.620 164.400,2.400 164.400 C 2.180 164.400,2.000 165.379,2.000 166.576 C 2.000 167.773,1.820 168.864,1.600 169.000 C 1.380 169.136,1.200 170.482,1.200 171.990 C 1.200 173.829,1.035 174.788,0.700 174.900 C -0.032 175.144,-0.032 224.856,0.700 225.100 C 1.035 225.212,1.200 226.171,1.200 228.010 C 1.200 229.518,1.380 230.864,1.600 231.000 C 1.820 231.136,2.000 232.216,2.000 233.400 C 2.000 234.584,2.180 235.664,2.400 235.800 C 2.620 235.936,2.800 236.811,2.800 237.744 C 2.800 238.677,2.962 239.611,3.159 239.820 C 3.492 240.173,3.648 240.984,4.253 245.500 C 4.378 246.435,4.642 247.200,4.840 247.200 C 5.038 247.200,5.200 247.920,5.200 248.800 C 5.200 249.680,5.380 250.400,5.600 250.400 C 5.820 250.400,6.000 251.030,6.000 251.800 C 6.000 252.570,6.180 253.200,6.400 253.200 C 6.620 253.200,6.800 253.819,6.800 254.576 C 6.800 255.333,6.980 256.064,7.200 256.200 C 7.420 256.336,7.600 256.876,7.600 257.400 C 7.600 257.924,7.780 258.464,8.000 258.600 C 8.220 258.736,8.400 259.278,8.400 259.804 C 8.400 260.967,11.250 269.746,11.688 269.933 C 11.860 270.007,12.000 270.491,12.000 271.010 C 12.000 271.528,12.180 272.064,12.400 272.200 C 12.620 272.336,12.800 272.887,12.800 273.424 C 12.800 273.961,12.980 274.400,13.200 274.400 C 13.420 274.400,13.600 274.760,13.600 275.200 C 13.600 275.640,13.747 276.000,13.928 276.000 C 14.108 276.000,14.500 276.900,14.800 278.000 C 15.100 279.100,15.492 280.000,15.672 280.000 C 15.853 280.000,16.000 280.360,16.000 280.800 C 16.000 281.240,16.180 281.600,16.400 281.600 C 16.620 281.600,16.800 281.853,16.800 282.162 C 16.800 282.471,17.139 283.416,17.553 284.262 C 17.967 285.108,18.732 286.700,19.253 287.800 C 19.774 288.900,20.335 289.860,20.500 289.933 C 20.665 290.007,20.800 290.412,20.800 290.833 C 20.800 291.255,20.938 291.600,21.106 291.600 C 21.274 291.600,21.723 292.320,22.104 293.200 C 23.100 295.497,23.781 295.190,30.400 289.455 C 30.950 288.978,34.714 285.891,38.764 282.594 C 42.814 279.297,48.316 274.800,50.991 272.600 C 53.666 270.400,58.175 266.710,61.012 264.400 C 63.849 262.090,67.796 258.847,69.785 257.194 C 71.773 255.541,75.830 252.224,78.800 249.823 C 81.770 247.423,85.100 244.709,86.200 243.793 C 87.300 242.877,88.515 242.014,88.900 241.876 C 89.638 241.611,89.884 240.400,89.200 240.400 C 88.980 240.400,88.800 239.961,88.800 239.424 C 88.800 238.887,88.620 238.336,88.400 238.200 C 88.180 238.064,88.000 237.423,88.000 236.776 C 88.000 236.129,87.820 235.600,87.600 235.600 C 87.380 235.600,87.200 235.161,87.200 234.624 C 87.200 234.087,87.040 233.548,86.844 233.427 C 86.649 233.306,86.379 232.576,86.244 231.804 C 86.110 231.032,85.890 229.768,85.756 228.996 C 85.621 228.224,85.351 227.494,85.156 227.373 C 84.960 227.252,84.800 226.443,84.800 225.576 C 84.800 224.709,84.620 224.000,84.400 224.000 C 84.180 224.000,84.000 223.111,84.000 222.024 C 84.000 220.937,83.820 219.936,83.600 219.800 C 83.380 219.664,83.200 218.494,83.200 217.200 C 83.200 215.906,83.020 214.736,82.800 214.600 C 82.575 214.461,82.400 212.537,82.400 210.200 C 82.400 207.863,82.225 205.939,82.000 205.800 C 81.766 205.655,81.600 203.337,81.600 200.200 C 81.600 197.063,81.766 194.745,82.000 194.600 C 82.227 194.460,82.400 192.470,82.400 190.000 C 82.400 187.530,82.573 185.540,82.800 185.400 C 83.020 185.264,83.200 184.094,83.200 182.800 C 83.200 181.506,83.380 180.336,83.600 180.200 C 83.820 180.064,84.000 179.063,84.000 177.976 C 84.000 176.889,84.180 176.000,84.400 176.000 C 84.620 176.000,84.800 175.291,84.800 174.424 C 84.800 173.557,84.980 172.736,85.200 172.600 C 85.420 172.464,85.600 171.834,85.600 171.200 C 85.600 170.566,85.780 169.936,86.000 169.800 C 86.220 169.664,86.400 168.933,86.400 168.176 C 86.400 167.419,86.580 166.800,86.800 166.800 C 87.020 166.800,87.200 166.271,87.200 165.624 C 87.200 164.977,87.380 164.336,87.600 164.200 C 88.193 163.834,88.087 161.319,87.468 161.081 C 86.969 160.890,79.289 154.703,68.800 146.043 C 66.270 143.954,63.030 141.292,61.600 140.127 C 60.170 138.962,57.086 136.432,54.746 134.505 C 52.407 132.577,49.797 130.438,48.946 129.750 C 46.280 127.596,37.438 120.377,36.600 119.671 C 36.160 119.301,33.910 117.468,31.600 115.600 C 29.290 113.731,27.310 112.112,27.200 112.001 C 27.090 111.890,26.010 110.993,24.800 110.008 C 23.590 109.022,22.540 108.077,22.467 107.908 C 22.271 107.455,21.865 107.556,21.300 108.198 " stroke="none" fill="#fbbb04" fill-rule="evenodd"></path><path id="path3" d="M203.600 202.199 L 203.600 242.400 257.100 242.432 C 286.525 242.449,310.375 242.554,310.100 242.665 C 309.825 242.776,309.600 243.201,309.600 243.610 C 309.600 244.018,309.417 244.466,309.193 244.604 C 308.970 244.742,308.883 245.010,309.000 245.200 C 309.117 245.390,309.030 245.658,308.807 245.796 C 308.583 245.934,308.400 246.361,308.400 246.744 C 308.400 247.619,307.501 249.593,307.100 249.597 C 306.935 249.599,306.800 249.845,306.800 250.144 C 306.800 250.801,304.324 255.745,303.900 255.933 C 303.735 256.007,303.600 256.346,303.600 256.686 C 303.600 257.027,303.285 257.599,302.900 257.957 C 302.067 258.732,301.200 260.207,301.200 260.848 C 301.200 261.100,300.866 261.597,300.457 261.953 C 300.049 262.309,299.597 262.960,299.453 263.400 C 299.310 263.840,298.661 264.801,298.011 265.537 C 297.362 266.272,296.722 267.217,296.588 267.637 C 296.455 268.056,296.178 268.400,295.973 268.400 C 295.768 268.400,295.645 268.625,295.700 268.900 C 295.755 269.175,295.562 269.351,295.270 269.290 C 294.979 269.230,294.845 269.349,294.973 269.556 C 295.101 269.763,294.754 270.468,294.203 271.124 C 293.651 271.779,293.200 272.504,293.200 272.734 C 293.200 272.964,292.992 273.281,292.738 273.438 C 292.433 273.627,292.386 273.546,292.600 273.200 C 292.814 272.854,292.767 272.773,292.462 272.962 C 292.208 273.119,292.000 273.512,292.000 273.836 C 292.000 274.160,291.379 274.970,290.619 275.637 C 289.860 276.304,289.127 277.201,288.990 277.630 C 288.854 278.060,288.575 278.308,288.371 278.182 C 288.167 278.056,288.000 278.148,288.000 278.388 C 288.000 278.855,278.270 288.800,277.812 288.800 C 277.661 288.800,276.824 289.520,275.953 290.400 C 275.082 291.280,274.117 292.000,273.808 292.000 C 273.500 292.000,273.119 292.208,272.962 292.462 C 272.773 292.767,272.854 292.814,273.200 292.600 C 273.546 292.386,273.627 292.433,273.438 292.738 C 273.281 292.992,272.902 293.200,272.596 293.200 C 272.290 293.200,271.896 293.439,271.720 293.731 C 271.544 294.023,270.770 294.608,270.000 295.031 C 269.230 295.454,268.365 296.115,268.077 296.500 C 267.790 296.885,267.287 297.200,266.961 297.200 C 266.634 297.200,266.011 297.531,265.577 297.936 C 265.142 298.341,264.295 298.925,263.693 299.233 C 263.092 299.542,262.309 300.111,261.953 300.497 C 261.597 300.884,261.023 301.200,260.677 301.200 C 260.330 301.200,259.936 301.380,259.800 301.600 C 259.664 301.820,259.745 302.000,259.980 302.000 C 260.345 302.000,261.251 302.699,263.356 304.602 C 263.834 305.034,267.702 308.215,268.946 309.200 C 269.363 309.530,270.462 310.430,271.388 311.200 C 272.313 311.970,273.762 313.140,274.606 313.800 C 275.451 314.460,276.335 315.180,276.571 315.400 C 276.807 315.620,278.890 317.329,281.200 319.199 C 283.510 321.068,285.733 322.868,286.140 323.199 C 286.547 323.529,287.375 324.250,287.981 324.800 C 288.586 325.350,289.677 326.250,290.404 326.800 C 291.132 327.350,291.923 327.983,292.163 328.206 C 292.404 328.429,293.409 329.239,294.399 330.006 C 296.208 331.408,297.725 332.651,298.553 333.409 C 298.799 333.634,300.440 334.977,302.200 336.394 C 303.960 337.811,305.670 339.256,306.000 339.604 C 306.330 339.953,307.230 340.671,308.000 341.200 C 308.770 341.729,309.670 342.443,310.000 342.785 C 310.330 343.128,311.259 343.899,312.065 344.498 C 312.871 345.098,313.771 345.816,314.065 346.094 C 314.359 346.372,315.950 347.677,317.600 348.994 C 321.630 352.210,321.887 352.423,323.340 353.755 C 325.595 355.823,326.233 356.117,327.265 355.565 C 328.492 354.909,329.218 354.152,328.914 353.848 C 328.778 353.711,328.927 353.600,329.245 353.600 C 329.563 353.600,330.083 353.240,330.400 352.800 C 330.717 352.360,331.162 352.000,331.388 352.000 C 332.011 351.999,334.023 350.157,333.726 349.860 C 333.583 349.717,333.661 349.600,333.899 349.600 C 334.136 349.600,335.964 347.935,337.959 345.900 C 339.955 343.865,341.726 342.064,341.894 341.899 C 342.062 341.733,344.225 339.621,346.700 337.205 C 349.175 334.790,351.200 332.648,351.200 332.447 C 351.200 332.246,352.100 331.162,353.200 330.039 C 354.300 328.915,355.200 327.817,355.200 327.598 C 355.200 327.379,355.380 327.200,355.600 327.200 C 355.820 327.200,356.000 326.930,356.000 326.600 C 356.000 326.270,356.135 326.000,356.300 325.999 C 356.465 325.999,357.140 325.193,357.800 324.208 C 358.460 323.223,359.135 322.414,359.300 322.409 C 359.465 322.404,359.600 322.119,359.600 321.776 C 359.600 321.433,359.780 321.264,360.000 321.400 C 360.220 321.536,360.400 321.356,360.400 321.000 C 360.400 320.644,360.580 320.464,360.800 320.600 C 361.020 320.736,361.200 320.543,361.200 320.171 C 361.200 319.798,361.549 319.191,361.975 318.822 C 362.401 318.452,362.806 317.892,362.875 317.578 C 362.944 317.265,363.495 316.529,364.100 315.943 C 364.705 315.358,365.200 314.631,365.200 314.328 C 365.200 314.025,365.560 313.517,366.000 313.200 C 366.440 312.883,366.800 312.343,366.800 312.000 C 366.800 311.657,367.160 311.117,367.600 310.800 C 368.040 310.483,368.400 309.969,368.400 309.659 C 368.400 309.348,368.788 308.758,369.261 308.347 C 369.735 307.936,370.007 307.600,369.866 307.600 C 369.615 307.600,372.291 303.193,372.781 302.800 C 373.023 302.606,374.903 298.829,375.768 296.800 C 376.003 296.250,376.511 295.509,376.897 295.153 C 377.284 294.797,377.600 294.300,377.600 294.048 C 377.600 293.589,378.404 291.978,378.821 291.600 C 379.112 291.337,380.543 288.258,380.495 288.000 C 380.474 287.890,380.669 287.530,380.929 287.200 C 381.822 286.062,382.400 284.809,382.400 284.005 C 382.400 283.562,382.580 283.200,382.800 283.200 C 383.020 283.200,383.200 282.840,383.200 282.400 C 383.200 281.960,383.380 281.600,383.600 281.600 C 383.820 281.600,384.000 281.240,384.000 280.800 C 384.000 280.360,384.147 280.000,384.328 280.000 C 384.508 280.000,384.900 279.100,385.200 278.000 C 385.500 276.900,385.892 276.000,386.072 276.000 C 386.253 276.000,386.400 275.640,386.400 275.200 C 386.400 274.760,386.542 274.400,386.715 274.400 C 386.888 274.400,387.074 273.815,387.128 273.100 C 387.181 272.385,387.400 271.740,387.613 271.667 C 387.826 271.593,388.000 271.188,388.000 270.767 C 388.000 270.345,388.191 270.000,388.424 270.000 C 388.657 270.000,388.731 269.812,388.589 269.582 C 388.447 269.353,388.525 268.931,388.762 268.646 C 389.279 268.023,390.793 263.394,390.899 262.111 C 390.941 261.610,391.115 261.200,391.287 261.200 C 391.459 261.200,391.600 260.660,391.600 260.000 C 391.600 259.340,391.780 258.800,392.000 258.800 C 392.220 258.800,392.400 258.170,392.400 257.400 C 392.400 256.630,392.542 256.000,392.715 256.000 C 392.888 256.000,393.074 255.418,393.128 254.707 C 393.183 253.995,393.401 253.239,393.613 253.027 C 393.826 252.814,394.000 252.035,394.000 251.296 C 394.000 250.503,394.164 250.054,394.400 250.200 C 394.645 250.351,394.800 249.730,394.800 248.600 C 394.800 247.584,394.947 246.844,395.126 246.955 C 395.306 247.065,395.496 246.311,395.549 245.278 C 395.602 244.245,395.815 243.229,396.022 243.020 C 396.230 242.811,396.400 242.046,396.400 241.320 C 396.400 240.594,396.580 240.000,396.800 240.000 C 397.022 240.000,397.200 238.941,397.200 237.624 C 397.200 236.317,397.380 235.136,397.600 235.000 C 397.820 234.864,398.000 233.874,398.000 232.800 C 398.000 231.726,398.180 230.736,398.400 230.600 C 398.620 230.464,398.800 229.208,398.800 227.810 C 398.800 226.131,398.970 225.210,399.300 225.100 C 400.032 224.856,400.032 175.144,399.300 174.900 C 398.964 174.788,398.800 173.824,398.800 171.967 C 398.800 170.389,398.628 169.200,398.400 169.200 C 398.180 169.200,398.000 168.300,398.000 167.200 C 398.000 165.870,397.833 165.198,397.500 165.194 C 397.167 165.190,397.200 165.058,397.600 164.800 C 397.955 164.570,398.007 164.410,397.727 164.406 C 397.466 164.403,397.196 163.905,397.127 163.300 L 397.000 162.200 300.300 162.099 L 203.600 161.998 203.600 202.199 " stroke="none" fill="#548cfc" fill-rule="evenodd"></path><path id="path4" d="M260.000 302.352 C 260.000 302.545,260.855 303.394,261.900 304.238 C 262.945 305.082,263.890 305.876,264.000 306.001 C 264.110 306.127,267.080 308.550,270.600 311.387 C 274.120 314.224,277.090 316.655,277.200 316.791 C 277.310 316.927,279.290 318.557,281.600 320.413 C 283.910 322.269,286.250 324.175,286.800 324.649 C 287.350 325.123,289.978 327.286,292.640 329.455 C 295.302 331.625,298.252 334.030,299.196 334.800 C 300.140 335.570,303.016 337.910,305.587 340.000 C 308.159 342.090,311.339 344.700,312.655 345.800 C 313.971 346.900,317.332 349.670,320.124 351.957 C 322.916 354.243,325.200 356.304,325.200 356.537 C 325.200 356.801,325.381 356.779,325.684 356.476 C 326.062 356.098,325.991 355.869,325.356 355.424 C 324.909 355.111,323.990 354.348,323.312 353.728 C 321.887 352.423,321.616 352.198,317.600 348.994 C 315.950 347.677,314.359 346.372,314.065 346.094 C 313.771 345.816,312.871 345.098,312.065 344.498 C 311.259 343.899,310.330 343.128,310.000 342.785 C 309.670 342.443,308.770 341.729,308.000 341.200 C 307.230 340.671,306.330 339.953,306.000 339.604 C 305.670 339.256,303.960 337.808,302.200 336.386 C 298.921 333.739,297.433 332.508,296.647 331.794 C 296.401 331.571,295.390 330.764,294.400 330.000 C 293.410 329.236,292.404 328.429,292.163 328.206 C 291.923 327.983,291.132 327.350,290.404 326.800 C 289.677 326.250,288.586 325.350,287.981 324.800 C 287.375 324.250,286.547 323.529,286.140 323.199 C 285.733 322.868,283.510 321.068,281.200 319.199 C 278.890 317.329,276.807 315.620,276.571 315.400 C 276.335 315.180,275.451 314.460,274.606 313.800 C 273.762 313.140,272.313 311.970,271.388 311.200 C 270.462 310.430,269.363 309.530,268.946 309.200 C 266.379 307.170,261.951 303.448,260.973 302.500 C 260.369 301.914,260.000 301.858,260.000 302.352 " stroke="none" fill="#4995d7" fill-rule="evenodd"></path></g></svg>